# xmcd
#
# Track frame offsets:
#	150
#	15683
#	33677
#	49868
#	66349
#	83690
#	108190
#	120497
#	136972
#	157232
#
# Disc length: 2303 seconds
#
# Revision: 2
# Processed by: cddbd v1.5.2PL0 Copyright (c) Steve Scherf et al.
# Submitted via: audiograbber 1.83.01
#
DISCID=8408fd0a
DTITLE=Barb Waters - Rosa Duet
DYEAR=2003
DGENRE=Country
TTITLE0=Thinking Alot About You
TTITLE1=Vacancy Signs
TTITLE2=Make It Count
TTITLE3=Wipe Away My Tears
TTITLE4=When Will You Come My Way
TTITLE5=I Won´t See You Again (Hours And Distance)
TTITLE6=Jessie (Me And You)
TTITLE7=Split You Open
TTITLE8=Further Down The Line
TTITLE9=Make Some Decision
EXTD=
EXTT0=
EXTT1=
EXTT2=
EXTT3=
EXTT4=
EXTT5=
EXTT6=
EXTT7=
EXTT8=
EXTT9=
PLAYORDER=
